<svg xmlns="http://www.w3.org/2000/svg" xmlns:xlink="http://www.w3.org/1999/xlink" version="1.1" x="0px" y="0px" viewBox="0 0 256 256" style="enable-background:new 0 0 256 256;" xml:space="preserve"><path d="M226.74,199.28c-0.76,0.48-1.68,0.49-2.46,0.04l-16.82-9.7l-1.08,1.29c-19.26,23.11-47.55,36.37-77.61,36.37  c-48.57,0-90.32-34.6-99.26-82.27c-0.43-2.31,0.18-4.68,1.69-6.5c1.53-1.85,3.78-2.91,6.18-2.91H50.9c3.77,0,6.98,2.59,7.81,6.3  c3.49,15.69,12.32,29.94,24.87,40.12c12.73,10.33,28.78,16.02,45.21,16.02c19.4,0,37.57-7.62,51.17-21.45l1.81-1.84l-15.56-8.98  c-0.78-0.45-1.22-1.25-1.19-2.15c0.03-0.9,0.54-1.67,1.35-2.05l53.59-25.73c0.71-0.35,1.52-0.32,2.21,0.08  c0.69,0.4,1.12,1.08,1.18,1.88l4.51,59.27C227.92,197.99,227.5,198.81,226.74,199.28z"></path><path d="M226.03,119.33c-1.53,1.85-3.78,2.91-6.18,2.91h-13.51c-3.77,0-6.98-2.59-7.81-6.3c-3.49-15.69-12.32-29.94-24.87-40.12  c-12.73-10.33-28.78-16.02-45.21-16.02c-19.4,0-37.57,7.62-51.17,21.45l-1.81,1.84l15.56,8.98c0.78,0.45,1.22,1.25,1.19,2.15  c-0.03,0.9-0.54,1.67-1.35,2.05L37.29,122c-0.71,0.35-1.52,0.32-2.21-0.08c-0.69-0.4-1.12-1.08-1.18-1.88l-4.51-59.27  c-0.07-0.9,0.35-1.72,1.11-2.2s1.68-0.49,2.46-0.04l16.82,9.7l1.08-1.29c19.26-23.11,47.55-36.37,77.61-36.37  c48.57,0,90.32,34.6,99.26,82.27C228.15,115.14,227.54,117.51,226.03,119.33z"></path></svg>