<svg width="280" height="311" viewBox="0 0 280 311" fill="none" xmlns="http://www.w3.org/2000/svg">
<path fill-rule="evenodd" clip-rule="evenodd" d="M279.142 216.458V95.0263C279.142 82.9559 272.684 71.822 262.162 65.7868L156.951 5.01874C146.43 -1.01645 133.617 -1.01645 123.096 5.01874L17.8843 65.6828C7.36316 71.718 0.904633 82.8518 0.904633 95.0263V216.458C0.904633 228.529 7.36316 239.663 17.8843 245.698L123.096 306.362C133.617 312.397 146.43 312.397 156.951 306.362L262.267 245.594C272.684 239.663 279.142 228.529 279.142 216.458Z" fill="#FF8038"/>
<path fill-rule="evenodd" clip-rule="evenodd" d="M140.075 292.21C137.471 292.21 134.867 291.482 132.471 290.233L27.2596 229.465C22.5719 226.76 19.6552 221.765 19.6552 216.354V95.0263C19.6552 89.6154 22.5719 84.6208 27.1554 81.9154L132.471 21.1473C134.763 19.7945 137.367 19.1702 140.075 19.1702C142.784 19.1702 145.284 19.8986 147.68 21.1473L252.995 81.9154C257.683 84.6208 260.6 89.6154 260.6 95.0263V216.458C260.6 221.869 257.683 226.864 252.995 229.569L147.68 290.337C145.284 291.482 142.68 292.21 140.075 292.21Z" fill="#9CFC61"/>
<mask id="mask0_4_3" style="mask-type:alpha" maskUnits="userSpaceOnUse" x="10" y="133" width="259" height="61">
<path d="M10.6457 133.301H268.646V193.301H10.6457V133.301Z" fill="white"/>
</mask>
<g mask="url(#mask0_4_3)">
<path fill-rule="evenodd" clip-rule="evenodd" d="M10.6457 34.2317H268.646V292.232H10.6457V34.2317Z" fill="#FF8038"/>
</g>
<mask id="mask1_4_3" style="mask-type:alpha" maskUnits="userSpaceOnUse" x="122" y="244" width="36" height="35">
<path d="M122 244H157.139V278.037H122V244Z" fill="white"/>
</mask>
<g mask="url(#mask1_4_3)">
<path fill-rule="evenodd" clip-rule="evenodd" d="M144.917 255.167L157.139 256.912L148.335 265.657L150.471 277.948L139.523 272.186L128.621 278.037L130.658 265.73L121.785 257.056L133.993 255.212L139.41 244L144.917 255.167Z" fill="white"/>
</g>
<path fill-rule="evenodd" clip-rule="evenodd" d="M178.87 65.8803C178.87 64.6713 178.312 63.7413 177.289 63.0903C177.103 62.9973 176.824 62.8113 176.638 62.7183C176.638 59.6494 176.545 56.4875 176.359 53.3256C175.987 46.0718 172.174 42.5378 165.013 42.4448C158.782 42.4448 152.551 42.4448 146.32 42.4448C136.183 42.4448 126.139 42.3518 116.002 42.5378C106.702 42.7238 102.982 46.6297 102.982 55.9295C102.982 58.1614 102.982 60.3934 102.982 62.7183C102.424 62.9043 101.959 63.3693 101.587 63.8343C100.936 64.3923 100.75 65.2293 100.75 66.1592C100.75 70.4371 100.75 74.715 100.75 79.0859C100.75 80.3879 101.215 81.4109 102.331 82.0618C102.61 82.2478 102.796 82.3408 103.075 82.4338C103.075 91.6406 103.075 100.754 103.075 109.961C103.075 111.263 102.889 112.751 103.54 113.867C104.935 116.099 104.656 118.517 104.749 120.935C104.842 123.911 106.795 125.957 109.771 126.05C111.91 126.143 114.049 126.143 116.188 126.05C119.257 125.957 121.21 124.19 121.303 121.121C121.396 119.819 121.582 119.354 123.07 119.354C134.23 119.447 145.483 119.447 156.643 119.354C158.038 119.354 158.41 119.726 158.41 121.121C158.503 124.376 160.456 126.05 163.711 126.05C165.571 126.05 167.431 126.05 169.291 126.05C173.104 126.05 174.964 124.097 175.057 120.284C175.057 118.796 174.592 117.122 175.429 115.727C176.452 113.867 176.731 112.007 176.731 109.961C176.731 101.312 176.731 92.6636 176.731 82.4338C177.382 82.3408 177.94 81.7829 178.312 81.2249C178.777 80.6669 178.963 79.9229 178.963 79.1789C178.87 74.808 178.87 70.3441 178.87 65.8803ZM124.279 49.1407C129.859 49.1407 135.439 49.1407 140.926 49.1407C146.32 49.1407 151.714 49.1407 157.201 49.1407C159.619 49.1407 159.898 49.5127 159.991 52.3026C159.991 55.3715 159.712 55.8365 157.387 55.8365C146.32 55.8365 135.253 55.8365 124.279 55.8365C121.861 55.8365 121.396 55.2785 121.396 52.4886C121.303 49.6987 121.768 49.1407 124.279 49.1407ZM117.304 111.077C114.049 111.077 111.352 108.38 111.352 105.125C111.445 101.963 114.142 99.3594 117.211 99.3594C120.466 99.3594 122.884 101.87 122.884 105.218C122.977 108.473 120.466 111.077 117.304 111.077ZM116.467 90.9896C112.933 90.9896 111.352 89.3157 111.352 85.6888C111.352 79.1789 111.352 72.6691 111.352 66.1592C111.352 62.5323 112.84 61.0444 116.467 61.0444C124.279 61.0444 131.998 61.0444 139.81 61.0444C147.436 61.0444 155.062 61.0444 162.688 61.0444C166.78 61.0444 168.175 62.4393 168.175 66.4382C168.175 72.6691 168.175 78.8999 168.175 85.1308C168.175 88.8507 166.129 90.8966 162.409 90.9896C147.157 90.9896 131.812 90.9896 116.467 90.9896ZM162.409 111.077C159.247 111.077 156.736 108.566 156.643 105.311C156.643 101.963 159.061 99.4524 162.316 99.4524C165.571 99.4524 168.268 102.149 168.268 105.404C168.175 108.38 165.571 111.077 162.409 111.077Z" fill="white"/>
<path d="M23.9711 155H20.5211V152H30.7211V155H27.2711V173H23.9711V155ZM32.3189 152H37.2089C38.9089 152 40.1489 152.4 40.9289 153.2C41.7089 153.98 42.0989 155.19 42.0989 156.83V158.12C42.0989 160.3 41.3789 161.68 39.9389 162.26V162.32C40.7389 162.56 41.2989 163.05 41.6189 163.79C41.9589 164.53 42.1289 165.52 42.1289 166.76V170.45C42.1289 171.05 42.1489 171.54 42.1889 171.92C42.2289 172.28 42.3289 172.64 42.4889 173H39.1289C39.0089 172.66 38.9289 172.34 38.8889 172.04C38.8489 171.74 38.8289 171.2 38.8289 170.42V166.58C38.8289 165.62 38.6689 164.95 38.3489 164.57C38.0489 164.19 37.5189 164 36.7589 164H35.6189V173H32.3189V152ZM36.8189 161C37.4789 161 37.9689 160.83 38.2889 160.49C38.6289 160.15 38.7989 159.58 38.7989 158.78V157.16C38.7989 156.4 38.6589 155.85 38.3789 155.51C38.1189 155.17 37.6989 155 37.1189 155H35.6189V161H36.8189ZM46.9685 152H51.4385L54.8585 173H51.5585L50.9585 168.83V168.89H47.2085L46.6085 173H43.5485L46.9685 152ZM50.5685 166.04L49.0985 155.66H49.0385L47.5985 166.04H50.5685ZM56.4595 152H60.5995L63.8095 164.57H63.8695V152H66.8095V173H63.4195L59.4595 157.67H59.3995V173H56.4595V152ZM73.5522 173.3C71.9522 173.3 70.7422 172.85 69.9222 171.95C69.1022 171.03 68.6922 169.72 68.6922 168.02V166.82H71.8122V168.26C71.8122 169.62 72.3822 170.3 73.5222 170.3C74.0822 170.3 74.5022 170.14 74.7822 169.82C75.0822 169.48 75.2322 168.94 75.2322 168.2C75.2322 167.32 75.0322 166.55 74.6322 165.89C74.2322 165.21 73.4922 164.4 72.4122 163.46C71.0522 162.26 70.1022 161.18 69.5622 160.22C69.0222 159.24 68.7522 158.14 68.7522 156.92C68.7522 155.26 69.1722 153.98 70.0122 153.08C70.8522 152.16 72.0722 151.7 73.6722 151.7C75.2522 151.7 76.4422 152.16 77.2422 153.08C78.0622 153.98 78.4722 155.28 78.4722 156.98V157.85H75.3522V156.77C75.3522 156.05 75.2122 155.53 74.9322 155.21C74.6522 154.87 74.2422 154.7 73.7022 154.7C72.6022 154.7 72.0522 155.37 72.0522 156.71C72.0522 157.47 72.2522 158.18 72.6522 158.84C73.0722 159.5 73.8222 160.3 74.9022 161.24C76.2822 162.44 77.2322 163.53 77.7522 164.51C78.2722 165.49 78.5322 166.64 78.5322 167.96C78.5322 169.68 78.1022 171 77.2422 171.92C76.4022 172.84 75.1722 173.3 73.5522 173.3ZM80.4243 152H83.7243V173H80.4243V152ZM88.7758 155H85.3258V152H95.5258V155H92.0758V173H88.7758V155ZM104.478 152H108.948L112.368 173H109.068L108.468 168.83V168.89H104.718L104.118 173H101.058L104.478 152ZM108.078 166.04L106.608 155.66H106.548L105.108 166.04H108.078ZM113.969 152H118.859C120.559 152 121.799 152.4 122.579 153.2C123.359 153.98 123.749 155.19 123.749 156.83V158.12C123.749 160.3 123.029 161.68 121.589 162.26V162.32C122.389 162.56 122.949 163.05 123.269 163.79C123.609 164.53 123.779 165.52 123.779 166.76V170.45C123.779 171.05 123.799 171.54 123.839 171.92C123.879 172.28 123.979 172.64 124.139 173H120.779C120.659 172.66 120.579 172.34 120.539 172.04C120.499 171.74 120.479 171.2 120.479 170.42V166.58C120.479 165.62 120.319 164.95 119.999 164.57C119.699 164.19 119.169 164 118.409 164H117.269V173H113.969V152ZM118.469 161C119.129 161 119.619 160.83 119.939 160.49C120.279 160.15 120.449 159.58 120.449 158.78V157.16C120.449 156.4 120.309 155.85 120.029 155.51C119.769 155.17 119.349 155 118.769 155H117.269V161H118.469ZM126.069 152H130.959C132.659 152 133.899 152.4 134.679 153.2C135.459 153.98 135.849 155.19 135.849 156.83V158.12C135.849 160.3 135.129 161.68 133.689 162.26V162.32C134.489 162.56 135.049 163.05 135.369 163.79C135.709 164.53 135.879 165.52 135.879 166.76V170.45C135.879 171.05 135.899 171.54 135.939 171.92C135.979 172.28 136.079 172.64 136.239 173H132.879C132.759 172.66 132.679 172.34 132.639 172.04C132.599 171.74 132.579 171.2 132.579 170.42V166.58C132.579 165.62 132.419 164.95 132.099 164.57C131.799 164.19 131.269 164 130.509 164H129.369V173H126.069V152ZM130.569 161C131.229 161 131.719 160.83 132.039 160.49C132.379 160.15 132.549 159.58 132.549 158.78V157.16C132.549 156.4 132.409 155.85 132.129 155.51C131.869 155.17 131.449 155 130.869 155H129.369V161H130.569ZM138.168 152H141.468V173H138.168V152ZM143.07 152H146.4L148.56 168.29H148.62L150.78 152H153.81L150.63 173H146.25L143.07 152ZM157.095 152H161.565L164.985 173H161.685L161.085 168.83V168.89H157.335L156.735 173H153.675L157.095 152ZM160.695 166.04L159.225 155.66H159.165L157.725 166.04H160.695ZM166.586 152H169.886V170H175.316V173H166.586V152ZM181.189 173.3C179.589 173.3 178.379 172.85 177.559 171.95C176.739 171.03 176.329 169.72 176.329 168.02V166.82H179.449V168.26C179.449 169.62 180.019 170.3 181.159 170.3C181.719 170.3 182.139 170.14 182.419 169.82C182.719 169.48 182.869 168.94 182.869 168.2C182.869 167.32 182.669 166.55 182.269 165.89C181.869 165.21 181.129 164.4 180.049 163.46C178.689 162.26 177.739 161.18 177.199 160.22C176.659 159.24 176.389 158.14 176.389 156.92C176.389 155.26 176.809 153.98 177.649 153.08C178.489 152.16 179.709 151.7 181.309 151.7C182.889 151.7 184.079 152.16 184.879 153.08C185.699 153.98 186.109 155.28 186.109 156.98V157.85H182.989V156.77C182.989 156.05 182.849 155.53 182.569 155.21C182.289 154.87 181.879 154.7 181.339 154.7C180.239 154.7 179.689 155.37 179.689 156.71C179.689 157.47 179.889 158.18 180.289 158.84C180.709 159.5 181.459 160.3 182.539 161.24C183.919 162.44 184.869 163.53 185.389 164.51C185.909 165.49 186.169 166.64 186.169 167.96C186.169 169.68 185.739 171 184.879 171.92C184.039 172.84 182.809 173.3 181.189 173.3ZM192.086 152H195.266L196.736 168.14H196.796L198.356 152H201.956L203.516 168.14H203.576L205.046 152H207.896L205.766 173H201.656L200.156 158.84H200.096L198.596 173H194.216L192.086 152ZM209.565 152H212.865V173H209.565V152ZM215.336 152H220.376C222.016 152 223.246 152.44 224.066 153.32C224.886 154.2 225.296 155.49 225.296 157.19V167.81C225.296 169.51 224.886 170.8 224.066 171.68C223.246 172.56 222.016 173 220.376 173H215.336V152ZM220.316 170C220.856 170 221.266 169.84 221.546 169.52C221.846 169.2 221.996 168.68 221.996 167.96V157.04C221.996 156.32 221.846 155.8 221.546 155.48C221.266 155.16 220.856 155 220.316 155H218.636V170H220.316ZM232.204 173.3C230.604 173.3 229.384 172.85 228.544 171.95C227.704 171.03 227.284 169.72 227.284 168.02V156.98C227.284 155.28 227.704 153.98 228.544 153.08C229.384 152.16 230.604 151.7 232.204 151.7C233.804 151.7 235.024 152.16 235.864 153.08C236.704 153.98 237.124 155.28 237.124 156.98V158.78H234.004V156.77C234.004 155.39 233.434 154.7 232.294 154.7C231.154 154.7 230.584 155.39 230.584 156.77V168.26C230.584 169.62 231.154 170.3 232.294 170.3C233.434 170.3 234.004 169.62 234.004 168.26V164.15H232.354V161.15H237.124V168.02C237.124 169.72 236.704 171.03 235.864 171.95C235.024 172.85 233.804 173.3 232.204 173.3ZM239.243 152H248.243V155H242.543V160.55H247.073V163.55H242.543V170H248.243V173H239.243V152ZM252.721 155H249.271V152H259.471V155H256.021V173H252.721V155Z" fill="white"/>
</svg>
