<svg width="375" height="375" viewBox="0 0 375 375" fill="none" xmlns="http://www.w3.org/2000/svg">
<path fill-rule="evenodd" clip-rule="evenodd" d="M328.142 240.458V119.026C328.142 106.956 321.684 95.822 311.162 89.7868L205.951 29.0187C195.43 22.9836 182.617 22.9836 172.096 29.0187L66.8843 89.6828C56.3632 95.718 49.9046 106.852 49.9046 119.026V240.458C49.9046 252.529 56.3632 263.663 66.8843 269.698L172.096 330.362C182.617 336.397 195.43 336.397 205.951 330.362L311.267 269.594C321.684 263.663 328.142 252.529 328.142 240.458Z" fill="#FF8038"/>
<path fill-rule="evenodd" clip-rule="evenodd" d="M189.075 316.21C186.471 316.21 183.867 315.482 181.471 314.233L76.2596 253.465C71.5719 250.76 68.6552 245.765 68.6552 240.354V119.026C68.6552 113.615 71.5719 108.621 76.1554 105.915L181.471 45.1473C183.763 43.7945 186.367 43.1702 189.075 43.1702C191.784 43.1702 194.284 43.8986 196.68 45.1473L301.995 105.915C306.683 108.621 309.6 113.615 309.6 119.026V240.458C309.6 245.869 306.683 250.864 301.995 253.569L196.68 314.337C194.284 315.482 191.68 316.21 189.075 316.21Z" fill="#9CFC61"/>
<mask id="mask0_4_2" style="mask-type:alpha" maskUnits="userSpaceOnUse" x="59" y="157" width="259" height="61">
<path d="M59.6457 157.301H317.646V217.301H59.6457V157.301Z" fill="white"/>
</mask>
<g mask="url(#mask0_4_2)">
<path fill-rule="evenodd" clip-rule="evenodd" d="M59.6457 58.2317H317.646V316.232H59.6457V58.2317Z" fill="#FF8038"/>
</g>
<mask id="mask1_4_2" style="mask-type:alpha" maskUnits="userSpaceOnUse" x="171" y="268" width="36" height="35">
<path d="M171 268H206.139V302.037H171V268Z" fill="white"/>
</mask>
<g mask="url(#mask1_4_2)">
<path fill-rule="evenodd" clip-rule="evenodd" d="M193.917 279.167L206.139 280.912L197.335 289.657L199.471 301.948L188.523 296.186L177.621 302.037L179.658 289.73L170.785 281.056L182.993 279.212L188.41 268L193.917 279.167Z" fill="white"/>
</g>
<path fill-rule="evenodd" clip-rule="evenodd" d="M227.87 89.8803C227.87 88.6713 227.312 87.7413 226.289 87.0903C226.103 86.9973 225.824 86.8113 225.638 86.7183C225.638 83.6494 225.545 80.4875 225.359 77.3256C224.987 70.0718 221.174 66.5378 214.013 66.4448C207.782 66.4448 201.551 66.4448 195.32 66.4448C185.183 66.4448 175.139 66.3518 165.002 66.5378C155.702 66.7238 151.982 70.6297 151.982 79.9295C151.982 82.1614 151.982 84.3934 151.982 86.7183C151.424 86.9043 150.959 87.3693 150.587 87.8343C149.936 88.3923 149.75 89.2293 149.75 90.1592C149.75 94.4371 149.75 98.715 149.75 103.086C149.75 104.388 150.215 105.411 151.331 106.062C151.61 106.248 151.796 106.341 152.075 106.434C152.075 115.641 152.075 124.754 152.075 133.961C152.075 135.263 151.889 136.751 152.54 137.867C153.935 140.099 153.656 142.517 153.749 144.935C153.842 147.911 155.795 149.957 158.771 150.05C160.91 150.143 163.049 150.143 165.188 150.05C168.257 149.957 170.21 148.19 170.303 145.121C170.396 143.819 170.582 143.354 172.07 143.354C183.23 143.447 194.483 143.447 205.643 143.354C207.038 143.354 207.41 143.726 207.41 145.121C207.503 148.376 209.456 150.05 212.711 150.05C214.571 150.05 216.431 150.05 218.291 150.05C222.104 150.05 223.964 148.097 224.057 144.284C224.057 142.796 223.592 141.122 224.429 139.727C225.452 137.867 225.731 136.007 225.731 133.961C225.731 125.312 225.731 116.664 225.731 106.434C226.382 106.341 226.94 105.783 227.312 105.225C227.777 104.667 227.963 103.923 227.963 103.179C227.87 98.808 227.87 94.3441 227.87 89.8803ZM173.279 73.1407C178.859 73.1407 184.439 73.1407 189.926 73.1407C195.32 73.1407 200.714 73.1407 206.201 73.1407C208.619 73.1407 208.898 73.5127 208.991 76.3026C208.991 79.3715 208.712 79.8365 206.387 79.8365C195.32 79.8365 184.253 79.8365 173.279 79.8365C170.861 79.8365 170.396 79.2785 170.396 76.4886C170.303 73.6987 170.768 73.1407 173.279 73.1407ZM166.304 135.077C163.049 135.077 160.352 132.38 160.352 129.125C160.445 125.963 163.142 123.359 166.211 123.359C169.466 123.359 171.884 125.87 171.884 129.218C171.977 132.473 169.466 135.077 166.304 135.077ZM165.467 114.99C161.933 114.99 160.352 113.316 160.352 109.689C160.352 103.179 160.352 96.6691 160.352 90.1592C160.352 86.5323 161.84 85.0444 165.467 85.0444C173.279 85.0444 180.998 85.0444 188.81 85.0444C196.436 85.0444 204.062 85.0444 211.688 85.0444C215.78 85.0444 217.175 86.4393 217.175 90.4382C217.175 96.6691 217.175 102.9 217.175 109.131C217.175 112.851 215.129 114.897 211.409 114.99C196.157 114.99 180.812 114.99 165.467 114.99ZM211.409 135.077C208.247 135.077 205.736 132.566 205.643 129.311C205.643 125.963 208.061 123.452 211.316 123.452C214.571 123.452 217.268 126.149 217.268 129.404C217.175 132.38 214.571 135.077 211.409 135.077Z" fill="white"/>
<path d="M71.6277 177.8H68.5227V175.1H77.7027V177.8H74.5977V194H71.6277V177.8ZM79.1407 175.1H83.5417C85.0717 175.1 86.1877 175.46 86.8897 176.18C87.5917 176.882 87.9427 177.971 87.9427 179.447V180.608C87.9427 182.57 87.2947 183.812 85.9987 184.334V184.388C86.7187 184.604 87.2227 185.045 87.5107 185.711C87.8167 186.377 87.9697 187.268 87.9697 188.384V191.705C87.9697 192.245 87.9877 192.686 88.0237 193.028C88.0597 193.352 88.1497 193.676 88.2937 194H85.2697C85.1617 193.694 85.0897 193.406 85.0537 193.136C85.0177 192.866 84.9997 192.38 84.9997 191.678V188.222C84.9997 187.358 84.8557 186.755 84.5677 186.413C84.2977 186.071 83.8207 185.9 83.1367 185.9H82.1107V194H79.1407V175.1ZM83.1907 183.2C83.7847 183.2 84.2257 183.047 84.5137 182.741C84.8197 182.435 84.9727 181.922 84.9727 181.202V179.744C84.9727 179.06 84.8467 178.565 84.5947 178.259C84.3607 177.953 83.9827 177.8 83.4607 177.8H82.1107V183.2H83.1907ZM92.3253 175.1H96.3483L99.4263 194H96.4563L95.9163 190.247V190.301H92.5413L92.0013 194H89.2473L92.3253 175.1ZM95.5653 187.736L94.2423 178.394H94.1883L92.8923 187.736H95.5653ZM100.867 175.1H104.593L107.482 186.413H107.536V175.1H110.182V194H107.131L103.567 180.203H103.513V194H100.867V175.1ZM116.251 194.27C114.811 194.27 113.722 193.865 112.984 193.055C112.246 192.227 111.877 191.048 111.877 189.518V188.438H114.685V189.734C114.685 190.958 115.198 191.57 116.224 191.57C116.728 191.57 117.106 191.426 117.358 191.138C117.628 190.832 117.763 190.346 117.763 189.68C117.763 188.888 117.583 188.195 117.223 187.601C116.863 186.989 116.197 186.26 115.225 185.414C114.001 184.334 113.146 183.362 112.66 182.498C112.174 181.616 111.931 180.626 111.931 179.528C111.931 178.034 112.309 176.882 113.065 176.072C113.821 175.244 114.919 174.83 116.359 174.83C117.781 174.83 118.852 175.244 119.572 176.072C120.31 176.882 120.679 178.052 120.679 179.582V180.365H117.871V179.393C117.871 178.745 117.745 178.277 117.493 177.989C117.241 177.683 116.872 177.53 116.386 177.53C115.396 177.53 114.901 178.133 114.901 179.339C114.901 180.023 115.081 180.662 115.441 181.256C115.819 181.85 116.494 182.57 117.466 183.416C118.708 184.496 119.563 185.477 120.031 186.359C120.499 187.241 120.733 188.276 120.733 189.464C120.733 191.012 120.346 192.2 119.572 193.028C118.816 193.856 117.709 194.27 116.251 194.27ZM122.436 175.1H125.406V194H122.436V175.1ZM129.952 177.8H126.847V175.1H136.027V177.8H132.922V194H129.952V177.8ZM141.789 175.1H146.325C147.801 175.1 148.908 175.496 149.646 176.288C150.384 177.08 150.753 178.241 150.753 179.771V189.329C150.753 190.859 150.384 192.02 149.646 192.812C148.908 193.604 147.801 194 146.325 194H141.789V175.1ZM146.271 191.3C146.757 191.3 147.126 191.156 147.378 190.868C147.648 190.58 147.783 190.112 147.783 189.464V179.636C147.783 178.988 147.648 178.52 147.378 178.232C147.126 177.944 146.757 177.8 146.271 177.8H144.759V191.3H146.271ZM152.758 175.1H160.858V177.8H155.728V182.795H159.805V185.495H155.728V191.3H160.858V194H152.758V175.1ZM162.566 175.1H166.94C168.416 175.1 169.523 175.496 170.261 176.288C170.999 177.08 171.368 178.241 171.368 179.771V181.634C171.368 183.164 170.999 184.325 170.261 185.117C169.523 185.909 168.416 186.305 166.94 186.305H165.536V194H162.566V175.1ZM166.94 183.605C167.426 183.605 167.786 183.47 168.02 183.2C168.272 182.93 168.398 182.471 168.398 181.823V179.582C168.398 178.934 168.272 178.475 168.02 178.205C167.786 177.935 167.426 177.8 166.94 177.8H165.536V183.605H166.94ZM174.327 175.1H178.35L181.428 194H178.458L177.918 190.247V190.301H174.543L174.003 194H171.249L174.327 175.1ZM177.567 187.736L176.244 178.394H176.19L174.894 187.736H177.567ZM182.869 175.1H187.27C188.8 175.1 189.916 175.46 190.618 176.18C191.32 176.882 191.671 177.971 191.671 179.447V180.608C191.671 182.57 191.023 183.812 189.727 184.334V184.388C190.447 184.604 190.951 185.045 191.239 185.711C191.545 186.377 191.698 187.268 191.698 188.384V191.705C191.698 192.245 191.716 192.686 191.752 193.028C191.788 193.352 191.878 193.676 192.022 194H188.998C188.89 193.694 188.818 193.406 188.782 193.136C188.746 192.866 188.728 192.38 188.728 191.678V188.222C188.728 187.358 188.584 186.755 188.296 186.413C188.026 186.071 187.549 185.9 186.865 185.9H185.839V194H182.869V175.1ZM186.919 183.2C187.513 183.2 187.954 183.047 188.242 182.741C188.548 182.435 188.701 181.922 188.701 181.202V179.744C188.701 179.06 188.575 178.565 188.323 178.259C188.089 177.953 187.711 177.8 187.189 177.8H185.839V183.2H186.919ZM196.028 177.8H192.923V175.1H202.103V177.8H198.998V194H196.028V177.8ZM207.861 194.27C206.421 194.27 205.323 193.865 204.567 193.055C203.811 192.227 203.433 191.048 203.433 189.518V175.1H206.403V189.734C206.403 190.382 206.529 190.85 206.781 191.138C207.051 191.426 207.429 191.57 207.915 191.57C208.401 191.57 208.77 191.426 209.022 191.138C209.292 190.85 209.427 190.382 209.427 189.734V175.1H212.289V189.518C212.289 191.048 211.911 192.227 211.155 193.055C210.399 193.865 209.301 194.27 207.861 194.27ZM214.404 175.1H218.805C220.335 175.1 221.451 175.46 222.153 176.18C222.855 176.882 223.206 177.971 223.206 179.447V180.608C223.206 182.57 222.558 183.812 221.262 184.334V184.388C221.982 184.604 222.486 185.045 222.774 185.711C223.08 186.377 223.233 187.268 223.233 188.384V191.705C223.233 192.245 223.251 192.686 223.287 193.028C223.323 193.352 223.413 193.676 223.557 194H220.533C220.425 193.694 220.353 193.406 220.317 193.136C220.281 192.866 220.263 192.38 220.263 191.678V188.222C220.263 187.358 220.119 186.755 219.831 186.413C219.561 186.071 219.084 185.9 218.4 185.9H217.374V194H214.404V175.1ZM218.454 183.2C219.048 183.2 219.489 183.047 219.777 182.741C220.083 182.435 220.236 181.922 220.236 181.202V179.744C220.236 179.06 220.11 178.565 219.858 178.259C219.624 177.953 219.246 177.8 218.724 177.8H217.374V183.2H218.454ZM225.294 175.1H233.394V177.8H228.264V182.795H232.341V185.495H228.264V191.3H233.394V194H225.294V175.1ZM239.016 194.27C237.576 194.27 236.487 193.865 235.749 193.055C235.011 192.227 234.642 191.048 234.642 189.518V188.438H237.45V189.734C237.45 190.958 237.963 191.57 238.989 191.57C239.493 191.57 239.871 191.426 240.123 191.138C240.393 190.832 240.528 190.346 240.528 189.68C240.528 188.888 240.348 188.195 239.988 187.601C239.628 186.989 238.962 186.26 237.99 185.414C236.766 184.334 235.911 183.362 235.425 182.498C234.939 181.616 234.696 180.626 234.696 179.528C234.696 178.034 235.074 176.882 235.83 176.072C236.586 175.244 237.684 174.83 239.124 174.83C240.546 174.83 241.617 175.244 242.337 176.072C243.075 176.882 243.444 178.052 243.444 179.582V180.365H240.636V179.393C240.636 178.745 240.51 178.277 240.258 177.989C240.006 177.683 239.637 177.53 239.151 177.53C238.161 177.53 237.666 178.133 237.666 179.339C237.666 180.023 237.846 180.662 238.206 181.256C238.584 181.85 239.259 182.57 240.231 183.416C241.473 184.496 242.328 185.477 242.796 186.359C243.264 187.241 243.498 188.276 243.498 189.464C243.498 191.012 243.111 192.2 242.337 193.028C241.581 193.856 240.474 194.27 239.016 194.27ZM248.823 175.1H251.685L253.008 189.626H253.062L254.466 175.1H257.706L259.11 189.626H259.164L260.487 175.1H263.052L261.135 194H257.436L256.086 181.256H256.032L254.682 194H250.74L248.823 175.1ZM264.555 175.1H267.525V194H264.555V175.1ZM269.749 175.1H274.285C275.761 175.1 276.868 175.496 277.606 176.288C278.344 177.08 278.713 178.241 278.713 179.771V189.329C278.713 190.859 278.344 192.02 277.606 192.812C276.868 193.604 275.761 194 274.285 194H269.749V175.1ZM274.231 191.3C274.717 191.3 275.086 191.156 275.338 190.868C275.608 190.58 275.743 190.112 275.743 189.464V179.636C275.743 178.988 275.608 178.52 275.338 178.232C275.086 177.944 274.717 177.8 274.231 177.8H272.719V191.3H274.231ZM284.93 194.27C283.49 194.27 282.392 193.865 281.636 193.055C280.88 192.227 280.502 191.048 280.502 189.518V179.582C280.502 178.052 280.88 176.882 281.636 176.072C282.392 175.244 283.49 174.83 284.93 174.83C286.37 174.83 287.468 175.244 288.224 176.072C288.98 176.882 289.358 178.052 289.358 179.582V181.202H286.55V179.393C286.55 178.151 286.037 177.53 285.011 177.53C283.985 177.53 283.472 178.151 283.472 179.393V189.734C283.472 190.958 283.985 191.57 285.011 191.57C286.037 191.57 286.55 190.958 286.55 189.734V186.035H285.065V183.335H289.358V189.518C289.358 191.048 288.98 192.227 288.224 193.055C287.468 193.865 286.37 194.27 284.93 194.27ZM291.265 175.1H299.365V177.8H294.235V182.795H298.312V185.495H294.235V191.3H299.365V194H291.265V175.1ZM303.395 177.8H300.29V175.1H309.47V177.8H306.365V194H303.395V177.8Z" fill="white"/>
</svg>
